G04 #@! TF.GenerationSoftware,KiCad,Pcbnew,5.1.9*
G04 #@! TF.CreationDate,2021-03-17T16:28:07+01:00*
G04 #@! TF.ProjectId,Teensy4.1_Ethercon_adapter,5465656e-7379-4342-9e31-5f4574686572,1.1*
G04 #@! TF.SameCoordinates,PX80befc0PY6dac2c0*
G04 #@! TF.FileFunction,Paste,Top*
G04 #@! TF.FilePolarity,Positive*
%FSLAX46Y46*%
G04 Gerber Fmt 4.6, Leading zero omitted, Abs format (unit mm)*
G04 Created by KiCad (PCBNEW 5.1.9) date 2021-03-17 16:28:07*
%MOMM*%
%LPD*%
G01*
G04 APERTURE LIST*
%ADD10R,0.760000X1.700000*%
G04 APERTURE END LIST*
G36*
G01*
X16549998Y4600000D02*
X17450002Y4600000D01*
G75*
G02*
X17700000Y4350002I0J-249998D01*
G01*
X17700000Y3824998D01*
G75*
G02*
X17450002Y3575000I-249998J0D01*
G01*
X16549998Y3575000D01*
G75*
G02*
X16300000Y3824998I0J249998D01*
G01*
X16300000Y4350002D01*
G75*
G02*
X16549998Y4600000I249998J0D01*
G01*
G37*
G36*
G01*
X16549998Y6425000D02*
X17450002Y6425000D01*
G75*
G02*
X17700000Y6175002I0J-249998D01*
G01*
X17700000Y5649998D01*
G75*
G02*
X17450002Y5400000I-249998J0D01*
G01*
X16549998Y5400000D01*
G75*
G02*
X16300000Y5649998I0J249998D01*
G01*
X16300000Y6175002D01*
G75*
G02*
X16549998Y6425000I249998J0D01*
G01*
G37*
G36*
G01*
X3625000Y1875000D02*
X3625000Y3125000D01*
G75*
G02*
X3875000Y3375000I250000J0D01*
G01*
X4625000Y3375000D01*
G75*
G02*
X4875000Y3125000I0J-250000D01*
G01*
X4875000Y1875000D01*
G75*
G02*
X4625000Y1625000I-250000J0D01*
G01*
X3875000Y1625000D01*
G75*
G02*
X3625000Y1875000I0J250000D01*
G01*
G37*
G36*
G01*
X825000Y1875000D02*
X825000Y3125000D01*
G75*
G02*
X1075000Y3375000I250000J0D01*
G01*
X1825000Y3375000D01*
G75*
G02*
X2075000Y3125000I0J-250000D01*
G01*
X2075000Y1875000D01*
G75*
G02*
X1825000Y1625000I-250000J0D01*
G01*
X1075000Y1625000D01*
G75*
G02*
X825000Y1875000I0J250000D01*
G01*
G37*
G36*
G01*
X2275000Y6550000D02*
X3225000Y6550000D01*
G75*
G02*
X3475000Y6300000I0J-250000D01*
G01*
X3475000Y5800000D01*
G75*
G02*
X3225000Y5550000I-250000J0D01*
G01*
X2275000Y5550000D01*
G75*
G02*
X2025000Y5800000I0J250000D01*
G01*
X2025000Y6300000D01*
G75*
G02*
X2275000Y6550000I250000J0D01*
G01*
G37*
G36*
G01*
X2275000Y8450000D02*
X3225000Y8450000D01*
G75*
G02*
X3475000Y8200000I0J-250000D01*
G01*
X3475000Y7700000D01*
G75*
G02*
X3225000Y7450000I-250000J0D01*
G01*
X2275000Y7450000D01*
G75*
G02*
X2025000Y7700000I0J250000D01*
G01*
X2025000Y8200000D01*
G75*
G02*
X2275000Y8450000I250000J0D01*
G01*
G37*
G36*
G01*
X7500000Y25449998D02*
X7500000Y26350002D01*
G75*
G02*
X7749998Y26600000I249998J0D01*
G01*
X8275002Y26600000D01*
G75*
G02*
X8525000Y26350002I0J-249998D01*
G01*
X8525000Y25449998D01*
G75*
G02*
X8275002Y25200000I-249998J0D01*
G01*
X7749998Y25200000D01*
G75*
G02*
X7500000Y25449998I0J249998D01*
G01*
G37*
G36*
G01*
X5675000Y25449998D02*
X5675000Y26350002D01*
G75*
G02*
X5924998Y26600000I249998J0D01*
G01*
X6450002Y26600000D01*
G75*
G02*
X6700000Y26350002I0J-249998D01*
G01*
X6700000Y25449998D01*
G75*
G02*
X6450002Y25200000I-249998J0D01*
G01*
X5924998Y25200000D01*
G75*
G02*
X5675000Y25449998I0J249998D01*
G01*
G37*
G36*
G01*
X12687500Y25449998D02*
X12687500Y26350002D01*
G75*
G02*
X12937498Y26600000I249998J0D01*
G01*
X13462502Y26600000D01*
G75*
G02*
X13712500Y26350002I0J-249998D01*
G01*
X13712500Y25449998D01*
G75*
G02*
X13462502Y25200000I-249998J0D01*
G01*
X12937498Y25200000D01*
G75*
G02*
X12687500Y25449998I0J249998D01*
G01*
G37*
G36*
G01*
X10862500Y25449998D02*
X10862500Y26350002D01*
G75*
G02*
X11112498Y26600000I249998J0D01*
G01*
X11637502Y26600000D01*
G75*
G02*
X11887500Y26350002I0J-249998D01*
G01*
X11887500Y25449998D01*
G75*
G02*
X11637502Y25200000I-249998J0D01*
G01*
X11112498Y25200000D01*
G75*
G02*
X10862500Y25449998I0J249998D01*
G01*
G37*
G36*
G01*
X2749998Y22000000D02*
X3650002Y22000000D01*
G75*
G02*
X3900000Y21750002I0J-249998D01*
G01*
X3900000Y21224998D01*
G75*
G02*
X3650002Y20975000I-249998J0D01*
G01*
X2749998Y20975000D01*
G75*
G02*
X2500000Y21224998I0J249998D01*
G01*
X2500000Y21750002D01*
G75*
G02*
X2749998Y22000000I249998J0D01*
G01*
G37*
G36*
G01*
X2749998Y23825000D02*
X3650002Y23825000D01*
G75*
G02*
X3900000Y23575002I0J-249998D01*
G01*
X3900000Y23049998D01*
G75*
G02*
X3650002Y22800000I-249998J0D01*
G01*
X2749998Y22800000D01*
G75*
G02*
X2500000Y23049998I0J249998D01*
G01*
X2500000Y23575002D01*
G75*
G02*
X2749998Y23825000I249998J0D01*
G01*
G37*
G36*
G01*
X16649998Y22000000D02*
X17550002Y22000000D01*
G75*
G02*
X17800000Y21750002I0J-249998D01*
G01*
X17800000Y21224998D01*
G75*
G02*
X17550002Y20975000I-249998J0D01*
G01*
X16649998Y20975000D01*
G75*
G02*
X16400000Y21224998I0J249998D01*
G01*
X16400000Y21750002D01*
G75*
G02*
X16649998Y22000000I249998J0D01*
G01*
G37*
G36*
G01*
X16649998Y23825000D02*
X17550002Y23825000D01*
G75*
G02*
X17800000Y23575002I0J-249998D01*
G01*
X17800000Y23049998D01*
G75*
G02*
X17550002Y22800000I-249998J0D01*
G01*
X16649998Y22800000D01*
G75*
G02*
X16400000Y23049998I0J249998D01*
G01*
X16400000Y23575002D01*
G75*
G02*
X16649998Y23825000I249998J0D01*
G01*
G37*
G36*
G01*
X17425000Y13550000D02*
X18375000Y13550000D01*
G75*
G02*
X18625000Y13300000I0J-250000D01*
G01*
X18625000Y12800000D01*
G75*
G02*
X18375000Y12550000I-250000J0D01*
G01*
X17425000Y12550000D01*
G75*
G02*
X17175000Y12800000I0J250000D01*
G01*
X17175000Y13300000D01*
G75*
G02*
X17425000Y13550000I250000J0D01*
G01*
G37*
G36*
G01*
X17425000Y15450000D02*
X18375000Y15450000D01*
G75*
G02*
X18625000Y15200000I0J-250000D01*
G01*
X18625000Y14700000D01*
G75*
G02*
X18375000Y14450000I-250000J0D01*
G01*
X17425000Y14450000D01*
G75*
G02*
X17175000Y14700000I0J250000D01*
G01*
X17175000Y15200000D01*
G75*
G02*
X17425000Y15450000I250000J0D01*
G01*
G37*
D10*
X5555000Y9600000D03*
X6825000Y9600000D03*
X8095000Y9600000D03*
X9365000Y9600000D03*
X13175000Y9600000D03*
X10635000Y9600000D03*
X11905000Y9600000D03*
X14445000Y9600000D03*
X8095000Y18400000D03*
X11905000Y18400000D03*
X14445000Y18400000D03*
X6825000Y18400000D03*
X13175000Y18400000D03*
X9365000Y18400000D03*
X5555000Y18400000D03*
X10635000Y18400000D03*
M02*
