G04 #@! TF.GenerationSoftware,KiCad,Pcbnew,5.1.9*
G04 #@! TF.CreationDate,2021-03-17T16:28:07+01:00*
G04 #@! TF.ProjectId,Teensy4.1_Ethercon_adapter,5465656e-7379-4342-9e31-5f4574686572,1.1*
G04 #@! TF.SameCoordinates,PX80befc0PY6dac2c0*
G04 #@! TF.FileFunction,Copper,L1,Top*
G04 #@! TF.FilePolarity,Positive*
%FSLAX46Y46*%
G04 Gerber Fmt 4.6, Leading zero omitted, Abs format (unit mm)*
G04 Created by KiCad (PCBNEW 5.1.9) date 2021-03-17 16:28:07*
%MOMM*%
%LPD*%
G01*
G04 APERTURE LIST*
G04 #@! TA.AperFunction,EtchedComponent*
%ADD10C,0.100000*%
G04 #@! TD*
G04 #@! TA.AperFunction,ComponentPad*
%ADD11O,1.350000X1.350000*%
G04 #@! TD*
G04 #@! TA.AperFunction,ComponentPad*
%ADD12R,1.350000X1.350000*%
G04 #@! TD*
G04 #@! TA.AperFunction,SMDPad,CuDef*
%ADD13C,0.500000*%
G04 #@! TD*
G04 #@! TA.AperFunction,ComponentPad*
%ADD14C,1.600000*%
G04 #@! TD*
G04 #@! TA.AperFunction,ComponentPad*
%ADD15C,2.600000*%
G04 #@! TD*
G04 #@! TA.AperFunction,SMDPad,CuDef*
%ADD16R,0.760000X1.700000*%
G04 #@! TD*
G04 #@! TA.AperFunction,ViaPad*
%ADD17C,0.800000*%
G04 #@! TD*
G04 #@! TA.AperFunction,Conductor*
%ADD18C,0.400000*%
G04 #@! TD*
G04 #@! TA.AperFunction,Conductor*
%ADD19C,0.500000*%
G04 #@! TD*
G04 #@! TA.AperFunction,Conductor*
%ADD20C,0.250000*%
G04 #@! TD*
G04 #@! TA.AperFunction,Conductor*
%ADD21C,0.200000*%
G04 #@! TD*
G04 #@! TA.AperFunction,Conductor*
%ADD22C,0.100000*%
G04 #@! TD*
G04 APERTURE END LIST*
D10*
G36*
X16750000Y4500000D02*
G01*
X16750000Y5500000D01*
X17250000Y5500000D01*
X17250000Y4500000D01*
X16750000Y4500000D01*
G37*
D11*
X12000000Y4250000D03*
X12000000Y2250000D03*
X10000000Y4250000D03*
X10000000Y2250000D03*
X8000000Y4250000D03*
D12*
X8000000Y2250000D03*
G04 #@! TA.AperFunction,SMDPad,CuDef*
G36*
G01*
X16549998Y4600000D02*
X17450002Y4600000D01*
G75*
G02*
X17700000Y4350002I0J-249998D01*
G01*
X17700000Y3824998D01*
G75*
G02*
X17450002Y3575000I-249998J0D01*
G01*
X16549998Y3575000D01*
G75*
G02*
X16300000Y3824998I0J249998D01*
G01*
X16300000Y4350002D01*
G75*
G02*
X16549998Y4600000I249998J0D01*
G01*
G37*
G04 #@! TD.AperFunction*
G04 #@! TA.AperFunction,SMDPad,CuDef*
G36*
G01*
X16549998Y6425000D02*
X17450002Y6425000D01*
G75*
G02*
X17700000Y6175002I0J-249998D01*
G01*
X17700000Y5649998D01*
G75*
G02*
X17450002Y5400000I-249998J0D01*
G01*
X16549998Y5400000D01*
G75*
G02*
X16300000Y5649998I0J249998D01*
G01*
X16300000Y6175002D01*
G75*
G02*
X16549998Y6425000I249998J0D01*
G01*
G37*
G04 #@! TD.AperFunction*
D13*
X17000000Y5500000D03*
X17000000Y4500000D03*
G04 #@! TA.AperFunction,SMDPad,CuDef*
G36*
G01*
X3625000Y1875000D02*
X3625000Y3125000D01*
G75*
G02*
X3875000Y3375000I250000J0D01*
G01*
X4625000Y3375000D01*
G75*
G02*
X4875000Y3125000I0J-250000D01*
G01*
X4875000Y1875000D01*
G75*
G02*
X4625000Y1625000I-250000J0D01*
G01*
X3875000Y1625000D01*
G75*
G02*
X3625000Y1875000I0J250000D01*
G01*
G37*
G04 #@! TD.AperFunction*
G04 #@! TA.AperFunction,SMDPad,CuDef*
G36*
G01*
X825000Y1875000D02*
X825000Y3125000D01*
G75*
G02*
X1075000Y3375000I250000J0D01*
G01*
X1825000Y3375000D01*
G75*
G02*
X2075000Y3125000I0J-250000D01*
G01*
X2075000Y1875000D01*
G75*
G02*
X1825000Y1625000I-250000J0D01*
G01*
X1075000Y1625000D01*
G75*
G02*
X825000Y1875000I0J250000D01*
G01*
G37*
G04 #@! TD.AperFunction*
G04 #@! TA.AperFunction,SMDPad,CuDef*
G36*
G01*
X2275000Y6550000D02*
X3225000Y6550000D01*
G75*
G02*
X3475000Y6300000I0J-250000D01*
G01*
X3475000Y5800000D01*
G75*
G02*
X3225000Y5550000I-250000J0D01*
G01*
X2275000Y5550000D01*
G75*
G02*
X2025000Y5800000I0J250000D01*
G01*
X2025000Y6300000D01*
G75*
G02*
X2275000Y6550000I250000J0D01*
G01*
G37*
G04 #@! TD.AperFunction*
G04 #@! TA.AperFunction,SMDPad,CuDef*
G36*
G01*
X2275000Y8450000D02*
X3225000Y8450000D01*
G75*
G02*
X3475000Y8200000I0J-250000D01*
G01*
X3475000Y7700000D01*
G75*
G02*
X3225000Y7450000I-250000J0D01*
G01*
X2275000Y7450000D01*
G75*
G02*
X2025000Y7700000I0J250000D01*
G01*
X2025000Y8200000D01*
G75*
G02*
X2275000Y8450000I250000J0D01*
G01*
G37*
G04 #@! TD.AperFunction*
G04 #@! TA.AperFunction,SMDPad,CuDef*
G36*
G01*
X7500000Y25449998D02*
X7500000Y26350002D01*
G75*
G02*
X7749998Y26600000I249998J0D01*
G01*
X8275002Y26600000D01*
G75*
G02*
X8525000Y26350002I0J-249998D01*
G01*
X8525000Y25449998D01*
G75*
G02*
X8275002Y25200000I-249998J0D01*
G01*
X7749998Y25200000D01*
G75*
G02*
X7500000Y25449998I0J249998D01*
G01*
G37*
G04 #@! TD.AperFunction*
G04 #@! TA.AperFunction,SMDPad,CuDef*
G36*
G01*
X5675000Y25449998D02*
X5675000Y26350002D01*
G75*
G02*
X5924998Y26600000I249998J0D01*
G01*
X6450002Y26600000D01*
G75*
G02*
X6700000Y26350002I0J-249998D01*
G01*
X6700000Y25449998D01*
G75*
G02*
X6450002Y25200000I-249998J0D01*
G01*
X5924998Y25200000D01*
G75*
G02*
X5675000Y25449998I0J249998D01*
G01*
G37*
G04 #@! TD.AperFunction*
G04 #@! TA.AperFunction,SMDPad,CuDef*
G36*
G01*
X12687500Y25449998D02*
X12687500Y26350002D01*
G75*
G02*
X12937498Y26600000I249998J0D01*
G01*
X13462502Y26600000D01*
G75*
G02*
X13712500Y26350002I0J-249998D01*
G01*
X13712500Y25449998D01*
G75*
G02*
X13462502Y25200000I-249998J0D01*
G01*
X12937498Y25200000D01*
G75*
G02*
X12687500Y25449998I0J249998D01*
G01*
G37*
G04 #@! TD.AperFunction*
G04 #@! TA.AperFunction,SMDPad,CuDef*
G36*
G01*
X10862500Y25449998D02*
X10862500Y26350002D01*
G75*
G02*
X11112498Y26600000I249998J0D01*
G01*
X11637502Y26600000D01*
G75*
G02*
X11887500Y26350002I0J-249998D01*
G01*
X11887500Y25449998D01*
G75*
G02*
X11637502Y25200000I-249998J0D01*
G01*
X11112498Y25200000D01*
G75*
G02*
X10862500Y25449998I0J249998D01*
G01*
G37*
G04 #@! TD.AperFunction*
G04 #@! TA.AperFunction,SMDPad,CuDef*
G36*
G01*
X2749998Y22000000D02*
X3650002Y22000000D01*
G75*
G02*
X3900000Y21750002I0J-249998D01*
G01*
X3900000Y21224998D01*
G75*
G02*
X3650002Y20975000I-249998J0D01*
G01*
X2749998Y20975000D01*
G75*
G02*
X2500000Y21224998I0J249998D01*
G01*
X2500000Y21750002D01*
G75*
G02*
X2749998Y22000000I249998J0D01*
G01*
G37*
G04 #@! TD.AperFunction*
G04 #@! TA.AperFunction,SMDPad,CuDef*
G36*
G01*
X2749998Y23825000D02*
X3650002Y23825000D01*
G75*
G02*
X3900000Y23575002I0J-249998D01*
G01*
X3900000Y23049998D01*
G75*
G02*
X3650002Y22800000I-249998J0D01*
G01*
X2749998Y22800000D01*
G75*
G02*
X2500000Y23049998I0J249998D01*
G01*
X2500000Y23575002D01*
G75*
G02*
X2749998Y23825000I249998J0D01*
G01*
G37*
G04 #@! TD.AperFunction*
G04 #@! TA.AperFunction,SMDPad,CuDef*
G36*
G01*
X16649998Y22000000D02*
X17550002Y22000000D01*
G75*
G02*
X17800000Y21750002I0J-249998D01*
G01*
X17800000Y21224998D01*
G75*
G02*
X17550002Y20975000I-249998J0D01*
G01*
X16649998Y20975000D01*
G75*
G02*
X16400000Y21224998I0J249998D01*
G01*
X16400000Y21750002D01*
G75*
G02*
X16649998Y22000000I249998J0D01*
G01*
G37*
G04 #@! TD.AperFunction*
G04 #@! TA.AperFunction,SMDPad,CuDef*
G36*
G01*
X16649998Y23825000D02*
X17550002Y23825000D01*
G75*
G02*
X17800000Y23575002I0J-249998D01*
G01*
X17800000Y23049998D01*
G75*
G02*
X17550002Y22800000I-249998J0D01*
G01*
X16649998Y22800000D01*
G75*
G02*
X16400000Y23049998I0J249998D01*
G01*
X16400000Y23575002D01*
G75*
G02*
X16649998Y23825000I249998J0D01*
G01*
G37*
G04 #@! TD.AperFunction*
G04 #@! TA.AperFunction,SMDPad,CuDef*
G36*
G01*
X17425000Y13550000D02*
X18375000Y13550000D01*
G75*
G02*
X18625000Y13300000I0J-250000D01*
G01*
X18625000Y12800000D01*
G75*
G02*
X18375000Y12550000I-250000J0D01*
G01*
X17425000Y12550000D01*
G75*
G02*
X17175000Y12800000I0J250000D01*
G01*
X17175000Y13300000D01*
G75*
G02*
X17425000Y13550000I250000J0D01*
G01*
G37*
G04 #@! TD.AperFunction*
G04 #@! TA.AperFunction,SMDPad,CuDef*
G36*
G01*
X17425000Y15450000D02*
X18375000Y15450000D01*
G75*
G02*
X18625000Y15200000I0J-250000D01*
G01*
X18625000Y14700000D01*
G75*
G02*
X18375000Y14450000I-250000J0D01*
G01*
X17425000Y14450000D01*
G75*
G02*
X17175000Y14700000I0J250000D01*
G01*
X17175000Y15200000D01*
G75*
G02*
X17425000Y15450000I250000J0D01*
G01*
G37*
G04 #@! TD.AperFunction*
D14*
X5821968Y23608032D03*
X7091968Y21068032D03*
X8361968Y23608032D03*
X9631968Y21068032D03*
X10901968Y23608032D03*
X12171968Y21068032D03*
X13441968Y23608032D03*
X14711968Y21068032D03*
D15*
X16871968Y8408032D03*
D16*
X5555000Y9600000D03*
X6825000Y9600000D03*
X8095000Y9600000D03*
X9365000Y9600000D03*
X13175000Y9600000D03*
X10635000Y9600000D03*
X11905000Y9600000D03*
X14445000Y9600000D03*
X8095000Y18400000D03*
X11905000Y18400000D03*
X14445000Y18400000D03*
X6825000Y18400000D03*
X13175000Y18400000D03*
X9365000Y18400000D03*
X5555000Y18400000D03*
X10635000Y18400000D03*
D17*
X4250000Y1250000D03*
X12428768Y7371232D03*
X13171232Y6628768D03*
D18*
X13175000Y10825000D02*
X13175000Y9600000D01*
X12750000Y11250000D02*
X13175000Y10825000D01*
X7225000Y11250000D02*
X12750000Y11250000D01*
X6825000Y10850000D02*
X7225000Y11250000D01*
X6825000Y9600000D02*
X6825000Y10850000D01*
X6825000Y10850000D02*
X6825000Y10925000D01*
X6825000Y10925000D02*
X6500000Y11250000D01*
X2750000Y10500000D02*
X3500000Y11250000D01*
X6500000Y11250000D02*
X3500000Y11250000D01*
X2750000Y7950000D02*
X2750000Y8950000D01*
X2750000Y8950000D02*
X2750000Y10500000D01*
X2750000Y8500000D02*
X2750000Y8950000D01*
X6187500Y23973564D02*
X5821968Y23608032D01*
X6187500Y25900000D02*
X6187500Y23973564D01*
X5821968Y22338032D02*
X7091968Y21068032D01*
X5821968Y23608032D02*
X5821968Y22338032D01*
X11375000Y24081064D02*
X10901968Y23608032D01*
X11375000Y25900000D02*
X11375000Y24081064D01*
X10901968Y22338032D02*
X9631968Y21068032D01*
X10901968Y23608032D02*
X10901968Y22338032D01*
X9840000Y1900000D02*
X9840000Y2160000D01*
D19*
X17000000Y4087500D02*
X15337500Y4087500D01*
X17000000Y4087500D02*
X18412500Y4087500D01*
D18*
X17100000Y23312500D02*
X17100000Y24900000D01*
X16100000Y25900000D02*
X13200000Y25900000D01*
X17100000Y24900000D02*
X16100000Y25900000D01*
X8012500Y26762500D02*
X8012500Y25900000D01*
X12999990Y27000010D02*
X8250010Y27000010D01*
X13200000Y26800000D02*
X12999990Y27000010D01*
X8250010Y27000010D02*
X8012500Y26762500D01*
X13200000Y25900000D02*
X13200000Y26800000D01*
X8012500Y25900000D02*
X8012500Y26737500D01*
X4000010Y27000010D02*
X3200000Y26200000D01*
X7749990Y27000010D02*
X4000010Y27000010D01*
X8012500Y26737500D02*
X7749990Y27000010D01*
X3200000Y26200000D02*
X3200000Y23312500D01*
X18200010Y22212490D02*
X17100000Y23312500D01*
X18200010Y20311076D02*
X18200010Y22212490D01*
X17401171Y18398829D02*
X17401171Y19512237D01*
X17401171Y19512237D02*
X18200010Y20311076D01*
X17900000Y17900000D02*
X17401171Y18398829D01*
X17900000Y14950000D02*
X17900000Y17900000D01*
D20*
X4250000Y1250000D02*
X4250000Y2500000D01*
D21*
X8095000Y9130000D02*
X8095000Y9600000D01*
X8095000Y8523385D02*
X8095000Y9130000D01*
X12178385Y4440000D02*
X8095000Y8523385D01*
X12380000Y4440000D02*
X12178385Y4440000D01*
X6600000Y8085000D02*
X5555000Y9130000D01*
X7897002Y8085000D02*
X6600000Y8085000D01*
X10990001Y4992001D02*
X7897002Y8085000D01*
X10990001Y3598998D02*
X10990001Y4992001D01*
X5555000Y9130000D02*
X5555000Y9600000D01*
X11000000Y3588999D02*
X10990001Y3598998D01*
X11000000Y3280000D02*
X11000000Y3588999D01*
X12380000Y1900000D02*
X11000000Y3280000D01*
X11905000Y9130000D02*
X12950000Y8085000D01*
X11905000Y9600000D02*
X11905000Y9130000D01*
X12853033Y7371232D02*
X12428768Y7371232D01*
X12950000Y8085000D02*
X12950000Y7468199D01*
X12950000Y7468199D02*
X12853033Y7371232D01*
X14445000Y9130000D02*
X13400000Y8085000D01*
X14445000Y9600000D02*
X14445000Y9130000D01*
X13400000Y7281801D02*
X13171232Y7053033D01*
X13400000Y8085000D02*
X13400000Y7281801D01*
X13171232Y7053033D02*
X13171232Y6628768D01*
D18*
X16149999Y17149999D02*
X16600000Y17600000D01*
X13744999Y17149999D02*
X16149999Y17149999D01*
X13175000Y17719998D02*
X13744999Y17149999D01*
X13175000Y18400000D02*
X13175000Y17719998D01*
X16600000Y17600000D02*
X16600000Y19600000D01*
X17100000Y20100000D02*
X17100000Y21487500D01*
X16600000Y19600000D02*
X17100000Y20100000D01*
X3200000Y17800000D02*
X3200000Y21487500D01*
X3850001Y17149999D02*
X3200000Y17800000D01*
X6149999Y17149999D02*
X3850001Y17149999D01*
X6825000Y17825000D02*
X6149999Y17149999D01*
X6825000Y18400000D02*
X6825000Y17825000D01*
D20*
X8361968Y20471968D02*
X8361968Y23608032D01*
X5630001Y19575001D02*
X7465001Y19575001D01*
X7465001Y19575001D02*
X8361968Y20471968D01*
X5555000Y19500000D02*
X5630001Y19575001D01*
X5555000Y18400000D02*
X5555000Y19500000D01*
X11046967Y19943031D02*
X12171968Y21068032D01*
X8538031Y19943031D02*
X11046967Y19943031D01*
X8095000Y19500000D02*
X8538031Y19943031D01*
X8095000Y18400000D02*
X8095000Y19500000D01*
X13349989Y23516053D02*
X13441968Y23608032D01*
X13349989Y19949989D02*
X13349989Y23516053D01*
X13100000Y19700000D02*
X13349989Y19949989D01*
X12105000Y19700000D02*
X13100000Y19700000D01*
X11905000Y19500000D02*
X12105000Y19700000D01*
X11905000Y18400000D02*
X11905000Y19500000D01*
X14168032Y21068032D02*
X14711968Y21068032D01*
X13800000Y20700000D02*
X14168032Y21068032D01*
X13800000Y19800000D02*
X13800000Y20700000D01*
X14445000Y19155000D02*
X13800000Y19800000D01*
X14445000Y18400000D02*
X14445000Y19155000D01*
D19*
X17000000Y8280000D02*
X16871968Y8408032D01*
X17000000Y5912500D02*
X17000000Y8280000D01*
X17900000Y9436064D02*
X16871968Y8408032D01*
X17900000Y13050000D02*
X17900000Y9436064D01*
D20*
X1400000Y6331250D02*
X1556250Y6175000D01*
X2625000Y6175000D01*
X2625000Y6195000D01*
X2875000Y6195000D01*
X2875000Y6175000D01*
X3943750Y6175000D01*
X4100000Y6331250D01*
X4100605Y6375000D01*
X8935251Y6375000D01*
X10010251Y5300000D01*
X9896584Y5300000D01*
X9693726Y5259650D01*
X9502638Y5180498D01*
X9330664Y5065589D01*
X9184411Y4919336D01*
X9069502Y4747362D01*
X9000000Y4579571D01*
X8930498Y4747362D01*
X8815589Y4919336D01*
X8669336Y5065589D01*
X8497362Y5180498D01*
X8306274Y5259650D01*
X8103416Y5300000D01*
X7896584Y5300000D01*
X7693726Y5259650D01*
X7502638Y5180498D01*
X7330664Y5065589D01*
X7184411Y4919336D01*
X7069502Y4747362D01*
X6990350Y4556274D01*
X6950000Y4353416D01*
X6950000Y4146584D01*
X6990350Y3943726D01*
X7069502Y3752638D01*
X7184411Y3580664D01*
X7330664Y3434411D01*
X7502638Y3319502D01*
X7545340Y3301814D01*
X7325000Y3301814D01*
X7251487Y3294574D01*
X7180800Y3273131D01*
X7115653Y3238309D01*
X7058552Y3191448D01*
X7011691Y3134347D01*
X6976869Y3069200D01*
X6955426Y2998513D01*
X6948186Y2925000D01*
X6948186Y1575000D01*
X6955426Y1501487D01*
X6976869Y1430800D01*
X7011691Y1365653D01*
X7058552Y1308552D01*
X7115653Y1261691D01*
X7180800Y1226869D01*
X7251487Y1205426D01*
X7325000Y1198186D01*
X8675000Y1198186D01*
X8748513Y1205426D01*
X8819200Y1226869D01*
X8884347Y1261691D01*
X8941448Y1308552D01*
X8988309Y1365653D01*
X9013034Y1411910D01*
X9134649Y1279853D01*
X9340543Y1129672D01*
X9571779Y1022545D01*
X9674117Y991509D01*
X9875000Y1113101D01*
X9875000Y2125000D01*
X9855000Y2125000D01*
X9855000Y2375000D01*
X9875000Y2375000D01*
X9875000Y2395000D01*
X10125000Y2395000D01*
X10125000Y2375000D01*
X10145000Y2375000D01*
X10145000Y2125000D01*
X10125000Y2125000D01*
X10125000Y1113101D01*
X10325883Y991509D01*
X10428221Y1022545D01*
X10659457Y1129672D01*
X10865351Y1279853D01*
X11037990Y1467316D01*
X11144033Y1641094D01*
X11184411Y1580664D01*
X11330664Y1434411D01*
X11502638Y1319502D01*
X11693726Y1240350D01*
X11896584Y1200000D01*
X12103416Y1200000D01*
X12306274Y1240350D01*
X12497362Y1319502D01*
X12669336Y1434411D01*
X12815589Y1580664D01*
X12930498Y1752638D01*
X13009650Y1943726D01*
X13050000Y2146584D01*
X13050000Y2353416D01*
X13009650Y2556274D01*
X12930498Y2747362D01*
X12815589Y2919336D01*
X12669336Y3065589D01*
X12497362Y3180498D01*
X12329571Y3250000D01*
X12497362Y3319502D01*
X12669336Y3434411D01*
X12815589Y3580664D01*
X12930498Y3752638D01*
X13009650Y3943726D01*
X13050000Y4146584D01*
X13050000Y4353416D01*
X13009650Y4556274D01*
X12930498Y4747362D01*
X12815589Y4919336D01*
X12669336Y5065589D01*
X12497362Y5180498D01*
X12306274Y5259650D01*
X12103416Y5300000D01*
X11990136Y5300000D01*
X10915136Y6375000D01*
X12437492Y6375000D01*
X12484436Y6261668D01*
X12569250Y6134734D01*
X12677198Y6026786D01*
X12804132Y5941972D01*
X12945173Y5883551D01*
X13094901Y5853768D01*
X13247563Y5853768D01*
X13397291Y5883551D01*
X13538332Y5941972D01*
X13665266Y6026786D01*
X13773214Y6134734D01*
X13858028Y6261668D01*
X13904972Y6375000D01*
X15675000Y6375000D01*
X15675000Y4630704D01*
X15671976Y4600000D01*
X15675000Y4368750D01*
X15831250Y4212500D01*
X16171521Y4212500D01*
X16222437Y4089575D01*
X16408081Y4084860D01*
X16290326Y3967105D01*
X16294931Y3962500D01*
X15831250Y3962500D01*
X15675000Y3806250D01*
X15671976Y3575000D01*
X15684043Y3452479D01*
X15719781Y3334666D01*
X15777817Y3226089D01*
X15855920Y3130920D01*
X15951089Y3052817D01*
X16059666Y2994781D01*
X16177479Y2959043D01*
X16300000Y2946976D01*
X16718750Y2950000D01*
X16875000Y3106250D01*
X16875000Y3632957D01*
X16918377Y3624564D01*
X17090735Y3625461D01*
X17125000Y3632462D01*
X17125000Y3106250D01*
X17281250Y2950000D01*
X17700000Y2946976D01*
X17822521Y2959043D01*
X17940334Y2994781D01*
X18048911Y3052817D01*
X18144080Y3130920D01*
X18222183Y3226089D01*
X18280219Y3334666D01*
X18315957Y3452479D01*
X18328024Y3575000D01*
X18325000Y3806250D01*
X18168750Y3962500D01*
X17705069Y3962500D01*
X17709674Y3967105D01*
X17591919Y4084860D01*
X17777563Y4089575D01*
X17827731Y4212500D01*
X18168750Y4212500D01*
X18325000Y4368750D01*
X18328024Y4600000D01*
X18325000Y4630704D01*
X18325000Y6375000D01*
X19600000Y6375000D01*
X19600000Y1519563D01*
X19577169Y1286716D01*
X19515227Y1081553D01*
X19414616Y892332D01*
X19279166Y726254D01*
X19114040Y589650D01*
X18925522Y487718D01*
X18720803Y424347D01*
X18489155Y400000D01*
X1519563Y400000D01*
X1286716Y422831D01*
X1081553Y484773D01*
X892332Y585384D01*
X726254Y720834D01*
X589650Y885960D01*
X487718Y1074478D01*
X479512Y1100988D01*
X584666Y1044781D01*
X702479Y1009043D01*
X825000Y996976D01*
X1168750Y1000000D01*
X1325000Y1156250D01*
X1325000Y2375000D01*
X1575000Y2375000D01*
X1575000Y1156250D01*
X1731250Y1000000D01*
X2075000Y996976D01*
X2197521Y1009043D01*
X2315334Y1044781D01*
X2423911Y1102817D01*
X2519080Y1180920D01*
X2597183Y1276089D01*
X2655219Y1384666D01*
X2690957Y1502479D01*
X2703024Y1625000D01*
X2700000Y2218750D01*
X2543750Y2375000D01*
X1575000Y2375000D01*
X1325000Y2375000D01*
X1305000Y2375000D01*
X1305000Y2625000D01*
X1325000Y2625000D01*
X1325000Y3843750D01*
X1575000Y3843750D01*
X1575000Y2625000D01*
X2543750Y2625000D01*
X2700000Y2781250D01*
X2701750Y3125000D01*
X3248186Y3125000D01*
X3248186Y1875000D01*
X3260230Y1752715D01*
X3295899Y1635129D01*
X3353823Y1526761D01*
X3431776Y1431776D01*
X3486965Y1386483D01*
X3475000Y1326331D01*
X3475000Y1173669D01*
X3504783Y1023941D01*
X3563204Y882900D01*
X3648018Y755966D01*
X3755966Y648018D01*
X3882900Y563204D01*
X4023941Y504783D01*
X4173669Y475000D01*
X4326331Y475000D01*
X4476059Y504783D01*
X4617100Y563204D01*
X4744034Y648018D01*
X4851982Y755966D01*
X4936796Y882900D01*
X4995217Y1023941D01*
X5025000Y1173669D01*
X5025000Y1326331D01*
X5013035Y1386483D01*
X5068224Y1431776D01*
X5146177Y1526761D01*
X5204101Y1635129D01*
X5239770Y1752715D01*
X5251814Y1875000D01*
X5251814Y3125000D01*
X5239770Y3247285D01*
X5204101Y3364871D01*
X5146177Y3473239D01*
X5068224Y3568224D01*
X4973239Y3646177D01*
X4864871Y3704101D01*
X4747285Y3739770D01*
X4625000Y3751814D01*
X3875000Y3751814D01*
X3752715Y3739770D01*
X3635129Y3704101D01*
X3526761Y3646177D01*
X3431776Y3568224D01*
X3353823Y3473239D01*
X3295899Y3364871D01*
X3260230Y3247285D01*
X3248186Y3125000D01*
X2701750Y3125000D01*
X2703024Y3375000D01*
X2690957Y3497521D01*
X2655219Y3615334D01*
X2597183Y3723911D01*
X2519080Y3819080D01*
X2423911Y3897183D01*
X2315334Y3955219D01*
X2197521Y3990957D01*
X2075000Y4003024D01*
X1731250Y4000000D01*
X1575000Y3843750D01*
X1325000Y3843750D01*
X1168750Y4000000D01*
X825000Y4003024D01*
X702479Y3990957D01*
X584666Y3955219D01*
X476089Y3897183D01*
X400000Y3834739D01*
X400000Y5550000D01*
X1396976Y5550000D01*
X1409043Y5427479D01*
X1444781Y5309666D01*
X1502817Y5201089D01*
X1580920Y5105920D01*
X1676089Y5027817D01*
X1784666Y4969781D01*
X1902479Y4934043D01*
X2025000Y4921976D01*
X2468750Y4925000D01*
X2625000Y5081250D01*
X2625000Y5925000D01*
X2875000Y5925000D01*
X2875000Y5081250D01*
X3031250Y4925000D01*
X3475000Y4921976D01*
X3597521Y4934043D01*
X3715334Y4969781D01*
X3823911Y5027817D01*
X3919080Y5105920D01*
X3997183Y5201089D01*
X4055219Y5309666D01*
X4090957Y5427479D01*
X4103024Y5550000D01*
X4100000Y5768750D01*
X3943750Y5925000D01*
X2875000Y5925000D01*
X2625000Y5925000D01*
X1556250Y5925000D01*
X1400000Y5768750D01*
X1396976Y5550000D01*
X400000Y5550000D01*
X400000Y6375000D01*
X1399395Y6375000D01*
X1400000Y6331250D01*
G04 #@! TA.AperFunction,Conductor*
D22*
G36*
X1400000Y6331250D02*
G01*
X1556250Y6175000D01*
X2625000Y6175000D01*
X2625000Y6195000D01*
X2875000Y6195000D01*
X2875000Y6175000D01*
X3943750Y6175000D01*
X4100000Y6331250D01*
X4100605Y6375000D01*
X8935251Y6375000D01*
X10010251Y5300000D01*
X9896584Y5300000D01*
X9693726Y5259650D01*
X9502638Y5180498D01*
X9330664Y5065589D01*
X9184411Y4919336D01*
X9069502Y4747362D01*
X9000000Y4579571D01*
X8930498Y4747362D01*
X8815589Y4919336D01*
X8669336Y5065589D01*
X8497362Y5180498D01*
X8306274Y5259650D01*
X8103416Y5300000D01*
X7896584Y5300000D01*
X7693726Y5259650D01*
X7502638Y5180498D01*
X7330664Y5065589D01*
X7184411Y4919336D01*
X7069502Y4747362D01*
X6990350Y4556274D01*
X6950000Y4353416D01*
X6950000Y4146584D01*
X6990350Y3943726D01*
X7069502Y3752638D01*
X7184411Y3580664D01*
X7330664Y3434411D01*
X7502638Y3319502D01*
X7545340Y3301814D01*
X7325000Y3301814D01*
X7251487Y3294574D01*
X7180800Y3273131D01*
X7115653Y3238309D01*
X7058552Y3191448D01*
X7011691Y3134347D01*
X6976869Y3069200D01*
X6955426Y2998513D01*
X6948186Y2925000D01*
X6948186Y1575000D01*
X6955426Y1501487D01*
X6976869Y1430800D01*
X7011691Y1365653D01*
X7058552Y1308552D01*
X7115653Y1261691D01*
X7180800Y1226869D01*
X7251487Y1205426D01*
X7325000Y1198186D01*
X8675000Y1198186D01*
X8748513Y1205426D01*
X8819200Y1226869D01*
X8884347Y1261691D01*
X8941448Y1308552D01*
X8988309Y1365653D01*
X9013034Y1411910D01*
X9134649Y1279853D01*
X9340543Y1129672D01*
X9571779Y1022545D01*
X9674117Y991509D01*
X9875000Y1113101D01*
X9875000Y2125000D01*
X9855000Y2125000D01*
X9855000Y2375000D01*
X9875000Y2375000D01*
X9875000Y2395000D01*
X10125000Y2395000D01*
X10125000Y2375000D01*
X10145000Y2375000D01*
X10145000Y2125000D01*
X10125000Y2125000D01*
X10125000Y1113101D01*
X10325883Y991509D01*
X10428221Y1022545D01*
X10659457Y1129672D01*
X10865351Y1279853D01*
X11037990Y1467316D01*
X11144033Y1641094D01*
X11184411Y1580664D01*
X11330664Y1434411D01*
X11502638Y1319502D01*
X11693726Y1240350D01*
X11896584Y1200000D01*
X12103416Y1200000D01*
X12306274Y1240350D01*
X12497362Y1319502D01*
X12669336Y1434411D01*
X12815589Y1580664D01*
X12930498Y1752638D01*
X13009650Y1943726D01*
X13050000Y2146584D01*
X13050000Y2353416D01*
X13009650Y2556274D01*
X12930498Y2747362D01*
X12815589Y2919336D01*
X12669336Y3065589D01*
X12497362Y3180498D01*
X12329571Y3250000D01*
X12497362Y3319502D01*
X12669336Y3434411D01*
X12815589Y3580664D01*
X12930498Y3752638D01*
X13009650Y3943726D01*
X13050000Y4146584D01*
X13050000Y4353416D01*
X13009650Y4556274D01*
X12930498Y4747362D01*
X12815589Y4919336D01*
X12669336Y5065589D01*
X12497362Y5180498D01*
X12306274Y5259650D01*
X12103416Y5300000D01*
X11990136Y5300000D01*
X10915136Y6375000D01*
X12437492Y6375000D01*
X12484436Y6261668D01*
X12569250Y6134734D01*
X12677198Y6026786D01*
X12804132Y5941972D01*
X12945173Y5883551D01*
X13094901Y5853768D01*
X13247563Y5853768D01*
X13397291Y5883551D01*
X13538332Y5941972D01*
X13665266Y6026786D01*
X13773214Y6134734D01*
X13858028Y6261668D01*
X13904972Y6375000D01*
X15675000Y6375000D01*
X15675000Y4630704D01*
X15671976Y4600000D01*
X15675000Y4368750D01*
X15831250Y4212500D01*
X16171521Y4212500D01*
X16222437Y4089575D01*
X16408081Y4084860D01*
X16290326Y3967105D01*
X16294931Y3962500D01*
X15831250Y3962500D01*
X15675000Y3806250D01*
X15671976Y3575000D01*
X15684043Y3452479D01*
X15719781Y3334666D01*
X15777817Y3226089D01*
X15855920Y3130920D01*
X15951089Y3052817D01*
X16059666Y2994781D01*
X16177479Y2959043D01*
X16300000Y2946976D01*
X16718750Y2950000D01*
X16875000Y3106250D01*
X16875000Y3632957D01*
X16918377Y3624564D01*
X17090735Y3625461D01*
X17125000Y3632462D01*
X17125000Y3106250D01*
X17281250Y2950000D01*
X17700000Y2946976D01*
X17822521Y2959043D01*
X17940334Y2994781D01*
X18048911Y3052817D01*
X18144080Y3130920D01*
X18222183Y3226089D01*
X18280219Y3334666D01*
X18315957Y3452479D01*
X18328024Y3575000D01*
X18325000Y3806250D01*
X18168750Y3962500D01*
X17705069Y3962500D01*
X17709674Y3967105D01*
X17591919Y4084860D01*
X17777563Y4089575D01*
X17827731Y4212500D01*
X18168750Y4212500D01*
X18325000Y4368750D01*
X18328024Y4600000D01*
X18325000Y4630704D01*
X18325000Y6375000D01*
X19600000Y6375000D01*
X19600000Y1519563D01*
X19577169Y1286716D01*
X19515227Y1081553D01*
X19414616Y892332D01*
X19279166Y726254D01*
X19114040Y589650D01*
X18925522Y487718D01*
X18720803Y424347D01*
X18489155Y400000D01*
X1519563Y400000D01*
X1286716Y422831D01*
X1081553Y484773D01*
X892332Y585384D01*
X726254Y720834D01*
X589650Y885960D01*
X487718Y1074478D01*
X479512Y1100988D01*
X584666Y1044781D01*
X702479Y1009043D01*
X825000Y996976D01*
X1168750Y1000000D01*
X1325000Y1156250D01*
X1325000Y2375000D01*
X1575000Y2375000D01*
X1575000Y1156250D01*
X1731250Y1000000D01*
X2075000Y996976D01*
X2197521Y1009043D01*
X2315334Y1044781D01*
X2423911Y1102817D01*
X2519080Y1180920D01*
X2597183Y1276089D01*
X2655219Y1384666D01*
X2690957Y1502479D01*
X2703024Y1625000D01*
X2700000Y2218750D01*
X2543750Y2375000D01*
X1575000Y2375000D01*
X1325000Y2375000D01*
X1305000Y2375000D01*
X1305000Y2625000D01*
X1325000Y2625000D01*
X1325000Y3843750D01*
X1575000Y3843750D01*
X1575000Y2625000D01*
X2543750Y2625000D01*
X2700000Y2781250D01*
X2701750Y3125000D01*
X3248186Y3125000D01*
X3248186Y1875000D01*
X3260230Y1752715D01*
X3295899Y1635129D01*
X3353823Y1526761D01*
X3431776Y1431776D01*
X3486965Y1386483D01*
X3475000Y1326331D01*
X3475000Y1173669D01*
X3504783Y1023941D01*
X3563204Y882900D01*
X3648018Y755966D01*
X3755966Y648018D01*
X3882900Y563204D01*
X4023941Y504783D01*
X4173669Y475000D01*
X4326331Y475000D01*
X4476059Y504783D01*
X4617100Y563204D01*
X4744034Y648018D01*
X4851982Y755966D01*
X4936796Y882900D01*
X4995217Y1023941D01*
X5025000Y1173669D01*
X5025000Y1326331D01*
X5013035Y1386483D01*
X5068224Y1431776D01*
X5146177Y1526761D01*
X5204101Y1635129D01*
X5239770Y1752715D01*
X5251814Y1875000D01*
X5251814Y3125000D01*
X5239770Y3247285D01*
X5204101Y3364871D01*
X5146177Y3473239D01*
X5068224Y3568224D01*
X4973239Y3646177D01*
X4864871Y3704101D01*
X4747285Y3739770D01*
X4625000Y3751814D01*
X3875000Y3751814D01*
X3752715Y3739770D01*
X3635129Y3704101D01*
X3526761Y3646177D01*
X3431776Y3568224D01*
X3353823Y3473239D01*
X3295899Y3364871D01*
X3260230Y3247285D01*
X3248186Y3125000D01*
X2701750Y3125000D01*
X2703024Y3375000D01*
X2690957Y3497521D01*
X2655219Y3615334D01*
X2597183Y3723911D01*
X2519080Y3819080D01*
X2423911Y3897183D01*
X2315334Y3955219D01*
X2197521Y3990957D01*
X2075000Y4003024D01*
X1731250Y4000000D01*
X1575000Y3843750D01*
X1325000Y3843750D01*
X1168750Y4000000D01*
X825000Y4003024D01*
X702479Y3990957D01*
X584666Y3955219D01*
X476089Y3897183D01*
X400000Y3834739D01*
X400000Y5550000D01*
X1396976Y5550000D01*
X1409043Y5427479D01*
X1444781Y5309666D01*
X1502817Y5201089D01*
X1580920Y5105920D01*
X1676089Y5027817D01*
X1784666Y4969781D01*
X1902479Y4934043D01*
X2025000Y4921976D01*
X2468750Y4925000D01*
X2625000Y5081250D01*
X2625000Y5925000D01*
X2875000Y5925000D01*
X2875000Y5081250D01*
X3031250Y4925000D01*
X3475000Y4921976D01*
X3597521Y4934043D01*
X3715334Y4969781D01*
X3823911Y5027817D01*
X3919080Y5105920D01*
X3997183Y5201089D01*
X4055219Y5309666D01*
X4090957Y5427479D01*
X4103024Y5550000D01*
X4100000Y5768750D01*
X3943750Y5925000D01*
X2875000Y5925000D01*
X2625000Y5925000D01*
X1556250Y5925000D01*
X1400000Y5768750D01*
X1396976Y5550000D01*
X400000Y5550000D01*
X400000Y6375000D01*
X1399395Y6375000D01*
X1400000Y6331250D01*
G37*
G04 #@! TD.AperFunction*
M02*
