G04 #@! TF.GenerationSoftware,KiCad,Pcbnew,5.1.9*
G04 #@! TF.CreationDate,2021-03-17T16:28:07+01:00*
G04 #@! TF.ProjectId,Teensy4.1_Ethercon_adapter,5465656e-7379-4342-9e31-5f4574686572,1.1*
G04 #@! TF.SameCoordinates,PX80befc0PY6dac2c0*
G04 #@! TF.FileFunction,Legend,Top*
G04 #@! TF.FilePolarity,Positive*
%FSLAX46Y46*%
G04 Gerber Fmt 4.6, Leading zero omitted, Abs format (unit mm)*
G04 Created by KiCad (PCBNEW 5.1.9) date 2021-03-17 16:28:07*
%MOMM*%
%LPD*%
G01*
G04 APERTURE LIST*
%ADD10C,0.150000*%
%ADD11C,0.120000*%
G04 APERTURE END LIST*
D10*
X15500000Y28797620D02*
X15595238Y28797620D01*
X15690476Y28750000D01*
X15738095Y28702381D01*
X15785714Y28607143D01*
X15833333Y28416667D01*
X15833333Y28178572D01*
X15785714Y27988096D01*
X15738095Y27892858D01*
X15690476Y27845239D01*
X15595238Y27797620D01*
X15500000Y27797620D01*
X15404761Y27845239D01*
X15357142Y27892858D01*
X15309523Y27988096D01*
X15261904Y28178572D01*
X15261904Y28416667D01*
X15309523Y28607143D01*
X15357142Y28702381D01*
X15404761Y28750000D01*
X15500000Y28797620D01*
X16166666Y28797620D02*
X16785714Y28797620D01*
X16452380Y28416667D01*
X16595238Y28416667D01*
X16690476Y28369048D01*
X16738095Y28321429D01*
X16785714Y28226191D01*
X16785714Y27988096D01*
X16738095Y27892858D01*
X16690476Y27845239D01*
X16595238Y27797620D01*
X16309523Y27797620D01*
X16214285Y27845239D01*
X16166666Y27892858D01*
X17928571Y28845239D02*
X17071428Y27559524D01*
X18214285Y28702381D02*
X18261904Y28750000D01*
X18357142Y28797620D01*
X18595238Y28797620D01*
X18690476Y28750000D01*
X18738095Y28702381D01*
X18785714Y28607143D01*
X18785714Y28511905D01*
X18738095Y28369048D01*
X18166666Y27797620D01*
X18785714Y27797620D01*
X19738095Y27797620D02*
X19166666Y27797620D01*
X19452380Y27797620D02*
X19452380Y28797620D01*
X19357142Y28654762D01*
X19261904Y28559524D01*
X19166666Y28511905D01*
X821428Y28464286D02*
X1059523Y27797620D01*
X1297619Y28464286D01*
X2202380Y27797620D02*
X1630952Y27797620D01*
X1916666Y27797620D02*
X1916666Y28797620D01*
X1821428Y28654762D01*
X1726190Y28559524D01*
X1630952Y28511905D01*
X2630952Y27892858D02*
X2678571Y27845239D01*
X2630952Y27797620D01*
X2583333Y27845239D01*
X2630952Y27892858D01*
X2630952Y27797620D01*
X3630952Y27797620D02*
X3059523Y27797620D01*
X3345238Y27797620D02*
X3345238Y28797620D01*
X3250000Y28654762D01*
X3154761Y28559524D01*
X3059523Y28511905D01*
D11*
X13060000Y1190000D02*
X13060000Y5310000D01*
X9000000Y1190000D02*
X13060000Y1190000D01*
X6940000Y5310000D02*
X13060000Y5310000D01*
X9000000Y1190000D02*
X9000000Y3250000D01*
X9000000Y3250000D02*
X6940000Y3250000D01*
X6940000Y3250000D02*
X6940000Y5310000D01*
X8000000Y1190000D02*
X6940000Y1190000D01*
X6940000Y1190000D02*
X6940000Y2250000D01*
X17735000Y5227064D02*
X17735000Y4772936D01*
X16265000Y5227064D02*
X16265000Y4772936D01*
X565000Y1365000D02*
X4450000Y1365000D01*
X565000Y3635000D02*
X565000Y1365000D01*
X4450000Y3635000D02*
X565000Y3635000D01*
X2015000Y7261252D02*
X2015000Y6738748D01*
X3485000Y7261252D02*
X3485000Y6738748D01*
X6872936Y25165000D02*
X7327064Y25165000D01*
X6872936Y26635000D02*
X7327064Y26635000D01*
X12060436Y25165000D02*
X12514564Y25165000D01*
X12060436Y26635000D02*
X12514564Y26635000D01*
X2465000Y22627064D02*
X2465000Y22172936D01*
X3935000Y22627064D02*
X3935000Y22172936D01*
X16365000Y22627064D02*
X16365000Y22172936D01*
X17835000Y22627064D02*
X17835000Y22172936D01*
X17165000Y14261252D02*
X17165000Y13738748D01*
X18635000Y14261252D02*
X18635000Y13738748D01*
X4975000Y8800000D02*
X4975000Y10400000D01*
X4975000Y10400000D02*
X3450000Y10400000D01*
X3450000Y10400000D02*
X3450000Y17600000D01*
X3450000Y17600000D02*
X4975000Y17600000D01*
X15025000Y10400000D02*
X16550000Y10400000D01*
X16550000Y10400000D02*
X16550000Y17600000D01*
X16550000Y17600000D02*
X15025000Y17600000D01*
D10*
X5392380Y2916667D02*
X6106666Y2916667D01*
X6249523Y2869048D01*
X6344761Y2773810D01*
X6392380Y2630953D01*
X6392380Y2535715D01*
X6392380Y3916667D02*
X6392380Y3345239D01*
X6392380Y3630953D02*
X5392380Y3630953D01*
X5535238Y3535715D01*
X5630476Y3440477D01*
X5678095Y3345239D01*
X2111904Y2047620D02*
X2111904Y3047620D01*
X2350000Y3047620D01*
X2492857Y3000000D01*
X2588095Y2904762D01*
X2635714Y2809524D01*
X2683333Y2619048D01*
X2683333Y2476191D01*
X2635714Y2285715D01*
X2588095Y2190477D01*
X2492857Y2095239D01*
X2350000Y2047620D01*
X2111904Y2047620D01*
X3635714Y2047620D02*
X3064285Y2047620D01*
X3350000Y2047620D02*
X3350000Y3047620D01*
X3254761Y2904762D01*
X3159523Y2809524D01*
X3064285Y2761905D01*
X4633333Y6642858D02*
X4585714Y6595239D01*
X4442857Y6547620D01*
X4347619Y6547620D01*
X4204761Y6595239D01*
X4109523Y6690477D01*
X4061904Y6785715D01*
X4014285Y6976191D01*
X4014285Y7119048D01*
X4061904Y7309524D01*
X4109523Y7404762D01*
X4204761Y7500000D01*
X4347619Y7547620D01*
X4442857Y7547620D01*
X4585714Y7500000D01*
X4633333Y7452381D01*
X5585714Y6547620D02*
X5014285Y6547620D01*
X5300000Y6547620D02*
X5300000Y7547620D01*
X5204761Y7404762D01*
X5109523Y7309524D01*
X5014285Y7261905D01*
X4133333Y25447620D02*
X3800000Y25923810D01*
X3561904Y25447620D02*
X3561904Y26447620D01*
X3942857Y26447620D01*
X4038095Y26400000D01*
X4085714Y26352381D01*
X4133333Y26257143D01*
X4133333Y26114286D01*
X4085714Y26019048D01*
X4038095Y25971429D01*
X3942857Y25923810D01*
X3561904Y25923810D01*
X4990476Y26114286D02*
X4990476Y25447620D01*
X4752380Y26495239D02*
X4514285Y25780953D01*
X5133333Y25780953D01*
X14733333Y25447620D02*
X14400000Y25923810D01*
X14161904Y25447620D02*
X14161904Y26447620D01*
X14542857Y26447620D01*
X14638095Y26400000D01*
X14685714Y26352381D01*
X14733333Y26257143D01*
X14733333Y26114286D01*
X14685714Y26019048D01*
X14638095Y25971429D01*
X14542857Y25923810D01*
X14161904Y25923810D01*
X15066666Y26447620D02*
X15685714Y26447620D01*
X15352380Y26066667D01*
X15495238Y26066667D01*
X15590476Y26019048D01*
X15638095Y25971429D01*
X15685714Y25876191D01*
X15685714Y25638096D01*
X15638095Y25542858D01*
X15590476Y25495239D01*
X15495238Y25447620D01*
X15209523Y25447620D01*
X15114285Y25495239D01*
X15066666Y25542858D01*
X1033333Y21947620D02*
X700000Y22423810D01*
X461904Y21947620D02*
X461904Y22947620D01*
X842857Y22947620D01*
X938095Y22900000D01*
X985714Y22852381D01*
X1033333Y22757143D01*
X1033333Y22614286D01*
X985714Y22519048D01*
X938095Y22471429D01*
X842857Y22423810D01*
X461904Y22423810D01*
X1414285Y22852381D02*
X1461904Y22900000D01*
X1557142Y22947620D01*
X1795238Y22947620D01*
X1890476Y22900000D01*
X1938095Y22852381D01*
X1985714Y22757143D01*
X1985714Y22661905D01*
X1938095Y22519048D01*
X1366666Y21947620D01*
X1985714Y21947620D01*
X18833333Y21947620D02*
X18500000Y22423810D01*
X18261904Y21947620D02*
X18261904Y22947620D01*
X18642857Y22947620D01*
X18738095Y22900000D01*
X18785714Y22852381D01*
X18833333Y22757143D01*
X18833333Y22614286D01*
X18785714Y22519048D01*
X18738095Y22471429D01*
X18642857Y22423810D01*
X18261904Y22423810D01*
X19785714Y21947620D02*
X19214285Y21947620D01*
X19500000Y21947620D02*
X19500000Y22947620D01*
X19404761Y22804762D01*
X19309523Y22709524D01*
X19214285Y22661905D01*
X17833333Y15842858D02*
X17785714Y15795239D01*
X17642857Y15747620D01*
X17547619Y15747620D01*
X17404761Y15795239D01*
X17309523Y15890477D01*
X17261904Y15985715D01*
X17214285Y16176191D01*
X17214285Y16319048D01*
X17261904Y16509524D01*
X17309523Y16604762D01*
X17404761Y16700000D01*
X17547619Y16747620D01*
X17642857Y16747620D01*
X17785714Y16700000D01*
X17833333Y16652381D01*
X18214285Y16652381D02*
X18261904Y16700000D01*
X18357142Y16747620D01*
X18595238Y16747620D01*
X18690476Y16700000D01*
X18738095Y16652381D01*
X18785714Y16557143D01*
X18785714Y16461905D01*
X18738095Y16319048D01*
X18166666Y15747620D01*
X18785714Y15747620D01*
X8738095Y14547620D02*
X9309523Y14547620D01*
X9023809Y13547620D02*
X9023809Y14547620D01*
X10214285Y13547620D02*
X9880952Y14023810D01*
X9642857Y13547620D02*
X9642857Y14547620D01*
X10023809Y14547620D01*
X10119047Y14500000D01*
X10166666Y14452381D01*
X10214285Y14357143D01*
X10214285Y14214286D01*
X10166666Y14119048D01*
X10119047Y14071429D01*
X10023809Y14023810D01*
X9642857Y14023810D01*
X11166666Y13547620D02*
X10595238Y13547620D01*
X10880952Y13547620D02*
X10880952Y14547620D01*
X10785714Y14404762D01*
X10690476Y14309524D01*
X10595238Y14261905D01*
M02*
