G04 #@! TF.GenerationSoftware,KiCad,Pcbnew,5.1.9*
G04 #@! TF.CreationDate,2021-01-28T17:40:55+01:00*
G04 #@! TF.ProjectId,Teensy4.1_Ethercon_adapter,5465656e-7379-4342-9e31-5f4574686572,1.0*
G04 #@! TF.SameCoordinates,PX80befc0PY6dac2c0*
G04 #@! TF.FileFunction,Copper,L2,Bot*
G04 #@! TF.FilePolarity,Positive*
%FSLAX46Y46*%
G04 Gerber Fmt 4.6, Leading zero omitted, Abs format (unit mm)*
G04 Created by KiCad (PCBNEW 5.1.9) date 2021-01-28 17:40:55*
%MOMM*%
%LPD*%
G01*
G04 APERTURE LIST*
G04 #@! TA.AperFunction,ComponentPad*
%ADD10C,1.600000*%
G04 #@! TD*
G04 #@! TA.AperFunction,ComponentPad*
%ADD11C,2.600000*%
G04 #@! TD*
G04 #@! TA.AperFunction,ComponentPad*
%ADD12O,1.700000X1.700000*%
G04 #@! TD*
G04 #@! TA.AperFunction,ComponentPad*
%ADD13R,1.700000X1.700000*%
G04 #@! TD*
G04 #@! TA.AperFunction,ViaPad*
%ADD14C,0.800000*%
G04 #@! TD*
G04 #@! TA.AperFunction,Conductor*
%ADD15C,0.250000*%
G04 #@! TD*
G04 #@! TA.AperFunction,Conductor*
%ADD16C,0.200000*%
G04 #@! TD*
G04 APERTURE END LIST*
D10*
X5821968Y23608032D03*
X7091968Y21068032D03*
X8361968Y23608032D03*
X9631968Y21068032D03*
X10901968Y23608032D03*
X12171968Y21068032D03*
X13441968Y23608032D03*
X14711968Y21068032D03*
D11*
X16871968Y8408032D03*
D12*
X12380000Y4440000D03*
X12380000Y1900000D03*
X9840000Y4440000D03*
X9840000Y1900000D03*
X7300000Y4440000D03*
D13*
X7300000Y1900000D03*
D14*
X15200000Y2000000D03*
X12428768Y7371232D03*
X13171232Y6628768D03*
D15*
X11015001Y3264999D02*
X13135001Y3264999D01*
X9840000Y4440000D02*
X11015001Y3264999D01*
X14400000Y2000000D02*
X15200000Y2000000D01*
X13135001Y3264999D02*
X14400000Y2000000D01*
D16*
X8240008Y5178393D02*
X8240008Y4440000D01*
X12428768Y6946967D02*
X11521793Y6039992D01*
X12428768Y7371232D02*
X12428768Y6946967D01*
X8240008Y4440000D02*
X7300000Y4440000D01*
X11521793Y6039992D02*
X9101607Y6039992D01*
X9101607Y6039992D02*
X8240008Y5178393D01*
X8600000Y3200000D02*
X7300000Y1900000D01*
X8689999Y3289999D02*
X8600000Y3200000D01*
X8689999Y4992001D02*
X8689999Y3289999D01*
X9287999Y5590001D02*
X8689999Y4992001D01*
X11708200Y5590001D02*
X9287999Y5590001D01*
X12746967Y6628768D02*
X11708200Y5590001D01*
X13171232Y6628768D02*
X12746967Y6628768D01*
M02*
