G04 #@! TF.GenerationSoftware,KiCad,Pcbnew,5.1.9*
G04 #@! TF.CreationDate,2021-01-28T17:40:55+01:00*
G04 #@! TF.ProjectId,Teensy4.1_Ethercon_adapter,5465656e-7379-4342-9e31-5f4574686572,1.0*
G04 #@! TF.SameCoordinates,PX80befc0PY6dac2c0*
G04 #@! TF.FileFunction,Legend,Top*
G04 #@! TF.FilePolarity,Positive*
%FSLAX46Y46*%
G04 Gerber Fmt 4.6, Leading zero omitted, Abs format (unit mm)*
G04 Created by KiCad (PCBNEW 5.1.9) date 2021-01-28 17:40:55*
%MOMM*%
%LPD*%
G01*
G04 APERTURE LIST*
%ADD10C,0.150000*%
%ADD11C,0.120000*%
G04 APERTURE END LIST*
D10*
X15500000Y28797620D02*
X15595238Y28797620D01*
X15690476Y28750000D01*
X15738095Y28702381D01*
X15785714Y28607143D01*
X15833333Y28416667D01*
X15833333Y28178572D01*
X15785714Y27988096D01*
X15738095Y27892858D01*
X15690476Y27845239D01*
X15595238Y27797620D01*
X15500000Y27797620D01*
X15404761Y27845239D01*
X15357142Y27892858D01*
X15309523Y27988096D01*
X15261904Y28178572D01*
X15261904Y28416667D01*
X15309523Y28607143D01*
X15357142Y28702381D01*
X15404761Y28750000D01*
X15500000Y28797620D01*
X16785714Y27797620D02*
X16214285Y27797620D01*
X16500000Y27797620D02*
X16500000Y28797620D01*
X16404761Y28654762D01*
X16309523Y28559524D01*
X16214285Y28511905D01*
X17928571Y28845239D02*
X17071428Y27559524D01*
X18214285Y28702381D02*
X18261904Y28750000D01*
X18357142Y28797620D01*
X18595238Y28797620D01*
X18690476Y28750000D01*
X18738095Y28702381D01*
X18785714Y28607143D01*
X18785714Y28511905D01*
X18738095Y28369048D01*
X18166666Y27797620D01*
X18785714Y27797620D01*
X19738095Y27797620D02*
X19166666Y27797620D01*
X19452380Y27797620D02*
X19452380Y28797620D01*
X19357142Y28654762D01*
X19261904Y28559524D01*
X19166666Y28511905D01*
X821428Y28464286D02*
X1059523Y27797620D01*
X1297619Y28464286D01*
X2202380Y27797620D02*
X1630952Y27797620D01*
X1916666Y27797620D02*
X1916666Y28797620D01*
X1821428Y28654762D01*
X1726190Y28559524D01*
X1630952Y28511905D01*
X2630952Y27892858D02*
X2678571Y27845239D01*
X2630952Y27797620D01*
X2583333Y27845239D01*
X2630952Y27892858D01*
X2630952Y27797620D01*
X3297619Y28797620D02*
X3392857Y28797620D01*
X3488095Y28750000D01*
X3535714Y28702381D01*
X3583333Y28607143D01*
X3630952Y28416667D01*
X3630952Y28178572D01*
X3583333Y27988096D01*
X3535714Y27892858D01*
X3488095Y27845239D01*
X3392857Y27797620D01*
X3297619Y27797620D01*
X3202380Y27845239D01*
X3154761Y27892858D01*
X3107142Y27988096D01*
X3059523Y28178572D01*
X3059523Y28416667D01*
X3107142Y28607143D01*
X3154761Y28702381D01*
X3202380Y28750000D01*
X3297619Y28797620D01*
D11*
X15765000Y5585000D02*
X15765000Y1700000D01*
X18035000Y5585000D02*
X15765000Y5585000D01*
X18035000Y1700000D02*
X18035000Y5585000D01*
X17165000Y12261252D02*
X17165000Y11738748D01*
X18635000Y12261252D02*
X18635000Y11738748D01*
X6872936Y25165000D02*
X7327064Y25165000D01*
X6872936Y26635000D02*
X7327064Y26635000D01*
X12060436Y25165000D02*
X12514564Y25165000D01*
X12060436Y26635000D02*
X12514564Y26635000D01*
X2465000Y22627064D02*
X2465000Y22172936D01*
X3935000Y22627064D02*
X3935000Y22172936D01*
X16365000Y22627064D02*
X16365000Y22172936D01*
X17835000Y22627064D02*
X17835000Y22172936D01*
X17165000Y15961252D02*
X17165000Y15438748D01*
X18635000Y15961252D02*
X18635000Y15438748D01*
X4975000Y8800000D02*
X4975000Y10400000D01*
X4975000Y10400000D02*
X3450000Y10400000D01*
X3450000Y10400000D02*
X3450000Y17600000D01*
X3450000Y17600000D02*
X4975000Y17600000D01*
X15025000Y10400000D02*
X16550000Y10400000D01*
X16550000Y10400000D02*
X16550000Y17600000D01*
X16550000Y17600000D02*
X15025000Y17600000D01*
X5970000Y570000D02*
X5970000Y1900000D01*
X7300000Y570000D02*
X5970000Y570000D01*
X5970000Y3170000D02*
X5970000Y5770000D01*
X8570000Y3170000D02*
X5970000Y3170000D01*
X8570000Y570000D02*
X8570000Y3170000D01*
X5970000Y5770000D02*
X13710000Y5770000D01*
X8570000Y570000D02*
X13710000Y570000D01*
X13710000Y570000D02*
X13710000Y5770000D01*
D10*
X16161904Y2847620D02*
X16161904Y3847620D01*
X16400000Y3847620D01*
X16542857Y3800000D01*
X16638095Y3704762D01*
X16685714Y3609524D01*
X16733333Y3419048D01*
X16733333Y3276191D01*
X16685714Y3085715D01*
X16638095Y2990477D01*
X16542857Y2895239D01*
X16400000Y2847620D01*
X16161904Y2847620D01*
X17685714Y2847620D02*
X17114285Y2847620D01*
X17400000Y2847620D02*
X17400000Y3847620D01*
X17304761Y3704762D01*
X17209523Y3609524D01*
X17114285Y3561905D01*
X18833333Y9242858D02*
X18785714Y9195239D01*
X18642857Y9147620D01*
X18547619Y9147620D01*
X18404761Y9195239D01*
X18309523Y9290477D01*
X18261904Y9385715D01*
X18214285Y9576191D01*
X18214285Y9719048D01*
X18261904Y9909524D01*
X18309523Y10004762D01*
X18404761Y10100000D01*
X18547619Y10147620D01*
X18642857Y10147620D01*
X18785714Y10100000D01*
X18833333Y10052381D01*
X19785714Y9147620D02*
X19214285Y9147620D01*
X19500000Y9147620D02*
X19500000Y10147620D01*
X19404761Y10004762D01*
X19309523Y9909524D01*
X19214285Y9861905D01*
X4133333Y25447620D02*
X3800000Y25923810D01*
X3561904Y25447620D02*
X3561904Y26447620D01*
X3942857Y26447620D01*
X4038095Y26400000D01*
X4085714Y26352381D01*
X4133333Y26257143D01*
X4133333Y26114286D01*
X4085714Y26019048D01*
X4038095Y25971429D01*
X3942857Y25923810D01*
X3561904Y25923810D01*
X4990476Y26114286D02*
X4990476Y25447620D01*
X4752380Y26495239D02*
X4514285Y25780953D01*
X5133333Y25780953D01*
X14733333Y25447620D02*
X14400000Y25923810D01*
X14161904Y25447620D02*
X14161904Y26447620D01*
X14542857Y26447620D01*
X14638095Y26400000D01*
X14685714Y26352381D01*
X14733333Y26257143D01*
X14733333Y26114286D01*
X14685714Y26019048D01*
X14638095Y25971429D01*
X14542857Y25923810D01*
X14161904Y25923810D01*
X15066666Y26447620D02*
X15685714Y26447620D01*
X15352380Y26066667D01*
X15495238Y26066667D01*
X15590476Y26019048D01*
X15638095Y25971429D01*
X15685714Y25876191D01*
X15685714Y25638096D01*
X15638095Y25542858D01*
X15590476Y25495239D01*
X15495238Y25447620D01*
X15209523Y25447620D01*
X15114285Y25495239D01*
X15066666Y25542858D01*
X1033333Y21947620D02*
X700000Y22423810D01*
X461904Y21947620D02*
X461904Y22947620D01*
X842857Y22947620D01*
X938095Y22900000D01*
X985714Y22852381D01*
X1033333Y22757143D01*
X1033333Y22614286D01*
X985714Y22519048D01*
X938095Y22471429D01*
X842857Y22423810D01*
X461904Y22423810D01*
X1414285Y22852381D02*
X1461904Y22900000D01*
X1557142Y22947620D01*
X1795238Y22947620D01*
X1890476Y22900000D01*
X1938095Y22852381D01*
X1985714Y22757143D01*
X1985714Y22661905D01*
X1938095Y22519048D01*
X1366666Y21947620D01*
X1985714Y21947620D01*
X18833333Y21947620D02*
X18500000Y22423810D01*
X18261904Y21947620D02*
X18261904Y22947620D01*
X18642857Y22947620D01*
X18738095Y22900000D01*
X18785714Y22852381D01*
X18833333Y22757143D01*
X18833333Y22614286D01*
X18785714Y22519048D01*
X18738095Y22471429D01*
X18642857Y22423810D01*
X18261904Y22423810D01*
X19785714Y21947620D02*
X19214285Y21947620D01*
X19500000Y21947620D02*
X19500000Y22947620D01*
X19404761Y22804762D01*
X19309523Y22709524D01*
X19214285Y22661905D01*
X17133333Y17542858D02*
X17085714Y17495239D01*
X16942857Y17447620D01*
X16847619Y17447620D01*
X16704761Y17495239D01*
X16609523Y17590477D01*
X16561904Y17685715D01*
X16514285Y17876191D01*
X16514285Y18019048D01*
X16561904Y18209524D01*
X16609523Y18304762D01*
X16704761Y18400000D01*
X16847619Y18447620D01*
X16942857Y18447620D01*
X17085714Y18400000D01*
X17133333Y18352381D01*
X17514285Y18352381D02*
X17561904Y18400000D01*
X17657142Y18447620D01*
X17895238Y18447620D01*
X17990476Y18400000D01*
X18038095Y18352381D01*
X18085714Y18257143D01*
X18085714Y18161905D01*
X18038095Y18019048D01*
X17466666Y17447620D01*
X18085714Y17447620D01*
X8738095Y14547620D02*
X9309523Y14547620D01*
X9023809Y13547620D02*
X9023809Y14547620D01*
X10214285Y13547620D02*
X9880952Y14023810D01*
X9642857Y13547620D02*
X9642857Y14547620D01*
X10023809Y14547620D01*
X10119047Y14500000D01*
X10166666Y14452381D01*
X10214285Y14357143D01*
X10214285Y14214286D01*
X10166666Y14119048D01*
X10119047Y14071429D01*
X10023809Y14023810D01*
X9642857Y14023810D01*
X11166666Y13547620D02*
X10595238Y13547620D01*
X10880952Y13547620D02*
X10880952Y14547620D01*
X10785714Y14404762D01*
X10690476Y14309524D01*
X10595238Y14261905D01*
M02*
