G04 #@! TF.GenerationSoftware,KiCad,Pcbnew,5.1.9*
G04 #@! TF.CreationDate,2021-03-17T16:28:07+01:00*
G04 #@! TF.ProjectId,Teensy4.1_Ethercon_adapter,5465656e-7379-4342-9e31-5f4574686572,1.1*
G04 #@! TF.SameCoordinates,PX80befc0PY6dac2c0*
G04 #@! TF.FileFunction,Legend,Bot*
G04 #@! TF.FilePolarity,Positive*
%FSLAX46Y46*%
G04 Gerber Fmt 4.6, Leading zero omitted, Abs format (unit mm)*
G04 Created by KiCad (PCBNEW 5.1.9) date 2021-03-17 16:28:07*
%MOMM*%
%LPD*%
G01*
G04 APERTURE LIST*
%ADD10C,0.150000*%
%ADD11C,0.100000*%
G04 APERTURE END LIST*
D10*
X13952380Y18622620D02*
X13380952Y18622620D01*
X13666666Y17622620D02*
X13666666Y18622620D01*
X12666666Y17670239D02*
X12761904Y17622620D01*
X12952380Y17622620D01*
X13047619Y17670239D01*
X13095238Y17765477D01*
X13095238Y18146429D01*
X13047619Y18241667D01*
X12952380Y18289286D01*
X12761904Y18289286D01*
X12666666Y18241667D01*
X12619047Y18146429D01*
X12619047Y18051191D01*
X13095238Y17955953D01*
X11809523Y17670239D02*
X11904761Y17622620D01*
X12095238Y17622620D01*
X12190476Y17670239D01*
X12238095Y17765477D01*
X12238095Y18146429D01*
X12190476Y18241667D01*
X12095238Y18289286D01*
X11904761Y18289286D01*
X11809523Y18241667D01*
X11761904Y18146429D01*
X11761904Y18051191D01*
X12238095Y17955953D01*
X11333333Y18289286D02*
X11333333Y17622620D01*
X11333333Y18194048D02*
X11285714Y18241667D01*
X11190476Y18289286D01*
X11047619Y18289286D01*
X10952380Y18241667D01*
X10904761Y18146429D01*
X10904761Y17622620D01*
X10476190Y17670239D02*
X10380952Y17622620D01*
X10190476Y17622620D01*
X10095238Y17670239D01*
X10047619Y17765477D01*
X10047619Y17813096D01*
X10095238Y17908334D01*
X10190476Y17955953D01*
X10333333Y17955953D01*
X10428571Y18003572D01*
X10476190Y18098810D01*
X10476190Y18146429D01*
X10428571Y18241667D01*
X10333333Y18289286D01*
X10190476Y18289286D01*
X10095238Y18241667D01*
X9714285Y18289286D02*
X9476190Y17622620D01*
X9238095Y18289286D02*
X9476190Y17622620D01*
X9571428Y17384524D01*
X9619047Y17336905D01*
X9714285Y17289286D01*
X7666666Y18289286D02*
X7666666Y17622620D01*
X7904761Y18670239D02*
X8142857Y17955953D01*
X7523809Y17955953D01*
X7142857Y17717858D02*
X7095238Y17670239D01*
X7142857Y17622620D01*
X7190476Y17670239D01*
X7142857Y17717858D01*
X7142857Y17622620D01*
X6142857Y17622620D02*
X6714285Y17622620D01*
X6428571Y17622620D02*
X6428571Y18622620D01*
X6523809Y18479762D01*
X6619047Y18384524D01*
X6714285Y18336905D01*
X16238095Y16496429D02*
X15904761Y16496429D01*
X15761904Y15972620D02*
X16238095Y15972620D01*
X16238095Y16972620D01*
X15761904Y16972620D01*
X15476190Y16639286D02*
X15095238Y16639286D01*
X15333333Y16972620D02*
X15333333Y16115477D01*
X15285714Y16020239D01*
X15190476Y15972620D01*
X15095238Y15972620D01*
X14761904Y15972620D02*
X14761904Y16972620D01*
X14333333Y15972620D02*
X14333333Y16496429D01*
X14380952Y16591667D01*
X14476190Y16639286D01*
X14619047Y16639286D01*
X14714285Y16591667D01*
X14761904Y16544048D01*
X13476190Y16020239D02*
X13571428Y15972620D01*
X13761904Y15972620D01*
X13857142Y16020239D01*
X13904761Y16115477D01*
X13904761Y16496429D01*
X13857142Y16591667D01*
X13761904Y16639286D01*
X13571428Y16639286D01*
X13476190Y16591667D01*
X13428571Y16496429D01*
X13428571Y16401191D01*
X13904761Y16305953D01*
X13000000Y15972620D02*
X13000000Y16639286D01*
X13000000Y16448810D02*
X12952380Y16544048D01*
X12904761Y16591667D01*
X12809523Y16639286D01*
X12714285Y16639286D01*
X11952380Y16020239D02*
X12047619Y15972620D01*
X12238095Y15972620D01*
X12333333Y16020239D01*
X12380952Y16067858D01*
X12428571Y16163096D01*
X12428571Y16448810D01*
X12380952Y16544048D01*
X12333333Y16591667D01*
X12238095Y16639286D01*
X12047619Y16639286D01*
X11952380Y16591667D01*
X11380952Y15972620D02*
X11476190Y16020239D01*
X11523809Y16067858D01*
X11571428Y16163096D01*
X11571428Y16448810D01*
X11523809Y16544048D01*
X11476190Y16591667D01*
X11380952Y16639286D01*
X11238095Y16639286D01*
X11142857Y16591667D01*
X11095238Y16544048D01*
X11047619Y16448810D01*
X11047619Y16163096D01*
X11095238Y16067858D01*
X11142857Y16020239D01*
X11238095Y15972620D01*
X11380952Y15972620D01*
X10619047Y16639286D02*
X10619047Y15972620D01*
X10619047Y16544048D02*
X10571428Y16591667D01*
X10476190Y16639286D01*
X10333333Y16639286D01*
X10238095Y16591667D01*
X10190476Y16496429D01*
X10190476Y15972620D01*
X8523809Y15972620D02*
X8523809Y16496429D01*
X8571428Y16591667D01*
X8666666Y16639286D01*
X8857142Y16639286D01*
X8952380Y16591667D01*
X8523809Y16020239D02*
X8619047Y15972620D01*
X8857142Y15972620D01*
X8952380Y16020239D01*
X9000000Y16115477D01*
X9000000Y16210715D01*
X8952380Y16305953D01*
X8857142Y16353572D01*
X8619047Y16353572D01*
X8523809Y16401191D01*
X7619047Y15972620D02*
X7619047Y16972620D01*
X7619047Y16020239D02*
X7714285Y15972620D01*
X7904761Y15972620D01*
X8000000Y16020239D01*
X8047619Y16067858D01*
X8095238Y16163096D01*
X8095238Y16448810D01*
X8047619Y16544048D01*
X8000000Y16591667D01*
X7904761Y16639286D01*
X7714285Y16639286D01*
X7619047Y16591667D01*
X6714285Y15972620D02*
X6714285Y16496429D01*
X6761904Y16591667D01*
X6857142Y16639286D01*
X7047619Y16639286D01*
X7142857Y16591667D01*
X6714285Y16020239D02*
X6809523Y15972620D01*
X7047619Y15972620D01*
X7142857Y16020239D01*
X7190476Y16115477D01*
X7190476Y16210715D01*
X7142857Y16305953D01*
X7047619Y16353572D01*
X6809523Y16353572D01*
X6714285Y16401191D01*
X6238095Y16639286D02*
X6238095Y15639286D01*
X6238095Y16591667D02*
X6142857Y16639286D01*
X5952380Y16639286D01*
X5857142Y16591667D01*
X5809523Y16544048D01*
X5761904Y16448810D01*
X5761904Y16163096D01*
X5809523Y16067858D01*
X5857142Y16020239D01*
X5952380Y15972620D01*
X6142857Y15972620D01*
X6238095Y16020239D01*
X5476190Y16639286D02*
X5095238Y16639286D01*
X5333333Y16972620D02*
X5333333Y16115477D01*
X5285714Y16020239D01*
X5190476Y15972620D01*
X5095238Y15972620D01*
X4380952Y16020239D02*
X4476190Y15972620D01*
X4666666Y15972620D01*
X4761904Y16020239D01*
X4809523Y16115477D01*
X4809523Y16496429D01*
X4761904Y16591667D01*
X4666666Y16639286D01*
X4476190Y16639286D01*
X4380952Y16591667D01*
X4333333Y16496429D01*
X4333333Y16401191D01*
X4809523Y16305953D01*
X3904761Y15972620D02*
X3904761Y16639286D01*
X3904761Y16448810D02*
X3857142Y16544048D01*
X3809523Y16591667D01*
X3714285Y16639286D01*
X3619047Y16639286D01*
D11*
X8142857Y5928572D02*
X7800000Y5928572D01*
X7971428Y5328572D02*
X7971428Y5928572D01*
X7600000Y5557143D02*
X7142857Y5557143D01*
X10385714Y5328572D02*
X10671428Y5328572D01*
X10671428Y5928572D01*
X10185714Y5642858D02*
X9985714Y5642858D01*
X9900000Y5328572D02*
X10185714Y5328572D01*
X10185714Y5928572D01*
X9900000Y5928572D01*
X9642857Y5328572D02*
X9642857Y5928572D01*
X9500000Y5928572D01*
X9414285Y5900000D01*
X9357142Y5842858D01*
X9328571Y5785715D01*
X9300000Y5671429D01*
X9300000Y5585715D01*
X9328571Y5471429D01*
X9357142Y5414286D01*
X9414285Y5357143D01*
X9500000Y5328572D01*
X9642857Y5328572D01*
X12585714Y5328572D02*
X12785714Y5614286D01*
X12928571Y5328572D02*
X12928571Y5928572D01*
X12700000Y5928572D01*
X12642857Y5900000D01*
X12614285Y5871429D01*
X12585714Y5814286D01*
X12585714Y5728572D01*
X12614285Y5671429D01*
X12642857Y5642858D01*
X12700000Y5614286D01*
X12928571Y5614286D01*
X12328571Y5557143D02*
X11871428Y5557143D01*
X12100000Y5328572D02*
X12100000Y5785715D01*
X8142857Y1128572D02*
X7800000Y1128572D01*
X7971428Y528572D02*
X7971428Y1128572D01*
X7600000Y757143D02*
X7142857Y757143D01*
X7371428Y528572D02*
X7371428Y985715D01*
X10457142Y1100000D02*
X10514285Y1128572D01*
X10600000Y1128572D01*
X10685714Y1100000D01*
X10742857Y1042858D01*
X10771428Y985715D01*
X10800000Y871429D01*
X10800000Y785715D01*
X10771428Y671429D01*
X10742857Y614286D01*
X10685714Y557143D01*
X10600000Y528572D01*
X10542857Y528572D01*
X10457142Y557143D01*
X10428571Y585715D01*
X10428571Y785715D01*
X10542857Y785715D01*
X10171428Y528572D02*
X10171428Y1128572D01*
X9828571Y528572D01*
X9828571Y1128572D01*
X9542857Y528572D02*
X9542857Y1128572D01*
X9400000Y1128572D01*
X9314285Y1100000D01*
X9257142Y1042858D01*
X9228571Y985715D01*
X9200000Y871429D01*
X9200000Y785715D01*
X9228571Y671429D01*
X9257142Y614286D01*
X9314285Y557143D01*
X9400000Y528572D01*
X9542857Y528572D01*
X12585714Y528572D02*
X12785714Y814286D01*
X12928571Y528572D02*
X12928571Y1128572D01*
X12700000Y1128572D01*
X12642857Y1100000D01*
X12614285Y1071429D01*
X12585714Y1014286D01*
X12585714Y928572D01*
X12614285Y871429D01*
X12642857Y842858D01*
X12700000Y814286D01*
X12928571Y814286D01*
X12328571Y757143D02*
X11871428Y757143D01*
D10*
X17871968Y30158032D02*
X14771968Y30158032D01*
X-1728032Y10608032D02*
X-1728032Y18958032D01*
X771968Y6458032D02*
X19771968Y6458032D01*
X19771968Y11758032D02*
X19771968Y6458032D01*
X22271968Y27308032D02*
X22271968Y18958032D01*
X1971968Y9058032D02*
G75*
G03*
X1971968Y9058032I-1600000J0D01*
G01*
X21771968Y28858032D02*
G75*
G03*
X21771968Y28858032I-1600000J0D01*
G01*
X21271968Y19058032D02*
G75*
G03*
X21271968Y19058032I-11000000J0D01*
G01*
X-1744534Y10620213D02*
G75*
G03*
X771967Y6458033I2116502J-1562181D01*
G01*
X22297627Y27289094D02*
G75*
G03*
X17871969Y30158031I-2125659J1568938D01*
G01*
X14864169Y30144586D02*
G75*
G03*
X-1728032Y19058032I-4592201J-11086554D01*
G01*
X19728097Y11670094D02*
G75*
G03*
X22271968Y19058032I-9456129J7387938D01*
G01*
X12750000Y8547620D02*
X12750000Y9547620D01*
X12178571Y8547620D01*
X12178571Y9547620D01*
X11702380Y9071429D02*
X11369047Y9071429D01*
X11226190Y8547620D02*
X11702380Y8547620D01*
X11702380Y9547620D01*
X11226190Y9547620D01*
X10654761Y9119048D02*
X10750000Y9166667D01*
X10797619Y9214286D01*
X10845238Y9309524D01*
X10845238Y9357143D01*
X10797619Y9452381D01*
X10750000Y9500000D01*
X10654761Y9547620D01*
X10464285Y9547620D01*
X10369047Y9500000D01*
X10321428Y9452381D01*
X10273809Y9357143D01*
X10273809Y9309524D01*
X10321428Y9214286D01*
X10369047Y9166667D01*
X10464285Y9119048D01*
X10654761Y9119048D01*
X10750000Y9071429D01*
X10797619Y9023810D01*
X10845238Y8928572D01*
X10845238Y8738096D01*
X10797619Y8642858D01*
X10750000Y8595239D01*
X10654761Y8547620D01*
X10464285Y8547620D01*
X10369047Y8595239D01*
X10321428Y8642858D01*
X10273809Y8738096D01*
X10273809Y8928572D01*
X10321428Y9023810D01*
X10369047Y9071429D01*
X10464285Y9119048D01*
X9511904Y9071429D02*
X9845238Y9071429D01*
X9845238Y8547620D02*
X9845238Y9547620D01*
X9369047Y9547620D01*
X9035714Y8833334D02*
X8559523Y8833334D01*
X9130952Y8547620D02*
X8797619Y9547620D01*
X8464285Y8547620D01*
X8273809Y9547620D02*
X7940476Y8547620D01*
X7607142Y9547620D01*
M02*
